<svg width="24" height="24" viewBox="0 0 24 24" fill="none" xmlns="http://www.w3.org/2000/svg">
<path d="M4.00398 20.2193C3.72346 20.2188 3.45605 20.1005 3.26698 19.8933C3.07442 19.6877 2.97874 19.4098 3.00398 19.1293L3.24898 16.4353L14.567 5.12129L18.104 8.65729L6.78898 19.9703L4.09498 20.2153C4.06398 20.2183 4.03298 20.2193 4.00398 20.2193ZM18.81 7.95029L15.274 4.41429L17.395 2.29329C17.5825 2.10551 17.8371 2 18.1025 2C18.3679 2 18.6224 2.10551 18.81 2.29329L20.931 4.41429C21.1188 4.60185 21.2243 4.85638 21.2243 5.12179C21.2243 5.3872 21.1188 5.64172 20.931 5.82929L18.811 7.94929L18.81 7.95029Z" fill="black"/>
</svg>
