<svg width="164" height="38" viewBox="0 0 164 38" fill="none" xmlns="http://www.w3.org/2000/svg">
<path d="M50.9043 28V6.67188H57.4668C59.3418 6.67188 61.0166 7.09668 62.4912 7.94629C63.9756 8.78613 65.1328 9.9873 65.9629 11.5498C66.793 13.1025 67.208 14.8701 67.208 16.8525V17.834C67.208 19.8164 66.7979 21.5791 65.9775 23.1221C65.167 24.665 64.0195 25.8613 62.5352 26.7109C61.0508 27.5605 59.376 27.9902 57.5107 28H50.9043ZM55.2988 10.2314V24.4697H57.4229C59.1416 24.4697 60.4551 23.9082 61.3633 22.7852C62.2715 21.6621 62.7354 20.0557 62.7549 17.9658V16.8379C62.7549 14.6699 62.3057 13.0293 61.4072 11.916C60.5088 10.793 59.1953 10.2314 57.4668 10.2314H55.2988ZM82.1348 23.6055H74.4297L72.9648 28H68.292L76.2314 6.67188H80.3037L88.2871 28H83.6143L82.1348 23.6055ZM75.6162 20.0459H80.9482L78.2676 12.0625L75.6162 20.0459ZM107.477 17.8193C107.477 19.9189 107.105 21.7598 106.363 23.3418C105.621 24.9238 104.557 26.1445 103.17 27.0039C101.793 27.8633 100.211 28.293 98.4238 28.293C96.6562 28.293 95.0791 27.8682 93.6924 27.0186C92.3057 26.1689 91.2314 24.958 90.4697 23.3857C89.708 21.8037 89.3223 19.9873 89.3125 17.9365V16.8818C89.3125 14.7822 89.6885 12.9365 90.4404 11.3447C91.2021 9.74316 92.2715 8.51758 93.6484 7.66797C95.0352 6.80859 96.6172 6.37891 98.3945 6.37891C100.172 6.37891 101.749 6.80859 103.126 7.66797C104.513 8.51758 105.582 9.74316 106.334 11.3447C107.096 12.9365 107.477 14.7773 107.477 16.8672V17.8193ZM103.023 16.8525C103.023 14.6162 102.623 12.917 101.822 11.7549C101.021 10.5928 99.8789 10.0117 98.3945 10.0117C96.9199 10.0117 95.7822 10.5879 94.9814 11.7402C94.1807 12.8828 93.7754 14.5625 93.7656 16.7793V17.8193C93.7656 19.9971 94.166 21.6865 94.9668 22.8877C95.7676 24.0889 96.9199 24.6895 98.4238 24.6895C99.8984 24.6895 101.031 24.1133 101.822 22.9609C102.613 21.7988 103.014 20.1094 103.023 17.8926V16.8525ZM115.064 24.4697H124.396V28H110.67V6.67188H115.064V24.4697ZM130.753 22.0088L133.683 12.1504H138.224L131.852 30.4609L131.5 31.2959C130.553 33.3662 128.99 34.4014 126.812 34.4014C126.197 34.4014 125.572 34.3086 124.938 34.123V30.915L125.582 30.9297C126.383 30.9297 126.979 30.8076 127.369 30.5635C127.77 30.3193 128.082 29.9141 128.307 29.3477L128.805 28.0439L123.253 12.1504H127.809L130.753 22.0088ZM148.478 23.6201C148.478 23.1025 148.219 22.6973 147.701 22.4043C147.193 22.1016 146.373 21.833 145.24 21.5986C141.471 20.8076 139.586 19.2061 139.586 16.7939C139.586 15.3877 140.167 14.2158 141.329 13.2783C142.501 12.3311 144.029 11.8574 145.914 11.8574C147.926 11.8574 149.532 12.3311 150.733 13.2783C151.944 14.2256 152.55 15.4561 152.55 16.9697H148.316C148.316 16.3643 148.121 15.8662 147.73 15.4756C147.34 15.0752 146.729 14.875 145.899 14.875C145.187 14.875 144.635 15.0361 144.244 15.3584C143.854 15.6807 143.658 16.0908 143.658 16.5889C143.658 17.0576 143.878 17.4385 144.317 17.7314C144.767 18.0146 145.519 18.2637 146.573 18.4785C147.628 18.6836 148.517 18.918 149.239 19.1816C151.476 20.002 152.594 21.4229 152.594 23.4443C152.594 24.8896 151.974 26.0615 150.733 26.96C149.493 27.8486 147.892 28.293 145.929 28.293C144.601 28.293 143.419 28.0586 142.384 27.5898C141.358 27.1113 140.553 26.4619 139.967 25.6416C139.381 24.8115 139.088 23.918 139.088 22.9609H143.102C143.141 23.7129 143.419 24.2891 143.937 24.6895C144.454 25.0898 145.147 25.29 146.017 25.29C146.827 25.29 147.438 25.1387 147.848 24.8359C148.268 24.5234 148.478 24.1182 148.478 23.6201ZM160.401 8.25391V12.1504H163.111V15.2559H160.401V23.166C160.401 23.752 160.514 24.1719 160.738 24.4258C160.963 24.6797 161.393 24.8066 162.027 24.8066C162.496 24.8066 162.911 24.7725 163.272 24.7041V27.9121C162.442 28.166 161.588 28.293 160.709 28.293C157.74 28.293 156.227 26.7939 156.168 23.7959V15.2559H153.854V12.1504H156.168V8.25391H160.401Z" fill="black"/>
<circle cx="4.52899" cy="13.587" r="4.52899" fill="black"/>
<circle cx="25.0602" cy="29.4082" r="4.52899" fill="black"/>
<circle cx="36.4128" cy="15.6401" r="4.52899" fill="black"/>
<circle cx="45.4714" cy="32.6691" r="4.52899" fill="black"/>
<circle cx="25.0602" cy="4.52899" r="4.52899" fill="black"/>
<path d="M4.58984 13.6473L23.0681 4.95169" stroke="black"/>
<line x1="20.4527" y1="17.7429" x2="36.3947" y2="15.2067" stroke="black"/>
<line x1="25.2" y1="28.9748" x2="45.6106" y2="32.2357" stroke="black"/>
<line x1="4.72817" y1="13.1669" x2="20.6702" y2="17.7562" stroke="black"/>
<line x1="25.4765" y1="4.11689" x2="36.8292" y2="15.5903" stroke="black"/>
<line x1="36.9129" y1="15.4617" x2="45.9709" y2="32.1284" stroke="black"/>
<line x1="20.9646" y1="17.9819" x2="25.4332" y2="29.2137" stroke="black"/>
<line x1="25.4756" y1="4.62292" x2="21.007" y2="18.391" stroke="black"/>
<line x1="36.8866" y1="16.0211" x2="25.3839" y2="29.7892" stroke="black"/>
<circle cx="20.4714" cy="18.1763" r="4.52899" fill="#FC4444"/>
</svg>
